<?xml version="1.0" encoding="utf-8"?>
<!-- Generator: Adobe Illustrator 28.4.1, SVG Export Plug-In . SVG Version: 6.00 Build 0)  -->
<svg version="1.1" id="图层_1" xmlns="http://www.w3.org/2000/svg" xmlns:xlink="http://www.w3.org/1999/xlink" x="0px" y="0px"
	 viewBox="0 0 200 200" style="enable-background:new 0 0 200 200;" xml:space="preserve">
<style type="text/css">
	.st0{fill:#FFFFFF;}
</style>
<path d="M50.5,17.5h99c18.1,0,33,14.8,33,33v99c0,18.1-14.8,33-33,33h-99c-18.2,0-33-14.8-33-33v-99C17.5,32.3,32.3,17.5,50.5,17.5z
	"/>
<path class="st0" d="M121.5,79c0.6,0,0.9,0,0.9,0.9v7.2c0,0.6-0.3,0.9-0.9,0.9h-4c-0.9,0-1.1,0.3-1.1,1.2v25.2
	c0,0.6,0.3,0.9,0.9,0.9h7.1c0.9,0,1.1,0.3,1.1,1.2v6.9c0,0.9-0.3,1.2-1.1,1.2c-4.6-0.3-9.4-0.3-14.3-0.3H95.5c-0.9,0-1.1,0-0.6-0.9
	c1.1-2.3,2.3-4.9,3.7-7.2c0.3-0.6,0.6-0.9,1.4-0.9h7.1c0.7,0,0.8-0.2,0.8-0.7V88.9c0-0.9-0.3-1.1-1.1-0.9h-4c-0.9,0-1.1-0.3-1.1-0.9
	v-7c0-0.9,0.3-1.1,1.1-1.1L121.5,79L121.5,79L121.5,79z M81.6,114.6c2,0.9,4.3,0.6,6.6,0.6h5.7c0.6,0,0.9,0.3,0.6,0.9
	c-1.4,2.6-2.6,5.2-4,7.8c-0.3,0.6-0.6,0.6-1.1,0.6c-1.4-0.3-3.1-0.3-5.4-0.3c-1.7,0-4.3,0.3-6.3-0.3c-0.9-0.3-1.1-0.6-0.6-1.2
	c1.4-2.6,2.6-4.9,3.7-7.5C81,114.9,81,114.3,81.6,114.6L81.6,114.6z M142.1,76.4c0.6,0,0.9,0.3,0.9,0.9c0,2,0,2,2,2
	c2.6,0,4.9,0.6,6.9,1.7c2.9,1.7,4,4.6,4,7.8v5.8c0,0.9,0.3,1.2,1.1,1.2c3.1,0,5.7,0.9,7.7,3.5c1.1,1.5,1.7,3.3,1.7,5.2V116
	c0,4.3-2.6,7.5-6.9,8.1c-1.8,0.3-3.7,0.2-5.4-0.3c-2.9-1-5-3.6-5.1-6.7c0-0.9,0.3-0.6,0.9-0.6h7.1c0.9,0,1.1-0.3,1.1-1.2V108
	c0-2-1.1-3.2-3.1-3.2h-10.9c-0.6,0-0.9,0.3-0.9,0.9c0.3,2.9,0.3,5.8,0.3,9v8.7c0,0.9-0.3,1.2-1.1,1.2h-6.9c-0.9,0-1.1-0.3-1.1-1.2
	v-17.4c0-0.9-0.3-1.2-1.1-1.2h-6.6c-0.9,0-1.1,0-1.1-0.9v-7.2c0-0.9,0.3-0.9,1.1-0.9h6.9c0.9,0,1.1-0.3,0.9-1.2v-5.5
	c0-0.9-0.3-0.9-1.1-0.9h-4c-0.6,0-0.9,0-0.9-0.9v-7.2c0-0.6,0.3-0.9,0.9-0.9h4c0.6,0,0.9-0.3,0.9-0.9c0-1.8,0-2,1.5-2L142.1,76.4
	L142.1,76.4L142.1,76.4z M58.4,75.6c0.9,0,1.1,0.3,1.1,1.2c-0.2,5.1-0.3,10.3-0.3,15.4v23.9c0,1.5-0.4,3-1.2,4.3
	c-1.4,2.9-4,3.8-7.1,3.5c-2.9-0.1-5.3-2.1-6-4.9c-0.9-2.9-0.9-2.6,2-2.9c1.1,0,2.6,0.6,3.4-0.3c0.6-0.6,0.3-2,0.3-3.2V76.7
	c0-0.9,0.3-1.2,1.1-1.2L58.4,75.6L58.4,75.6L58.4,75.6L58.4,75.6z M44.1,88.9c-0.6,6.4-0.9,12.7-1.7,19.1c-0.5,4.2-2.1,8.2-4.6,11.6
	c0.3,0,0,0.3,0,0.6c-1.7-3.2-3.1-6.4-4.9-9.5c-0.3-0.3-0.3-0.6,0-0.9c1.1-2.6,1.1-5.2,1.1-8.1L35,88.9c0-0.6,0.3-0.9,0.9-0.9h7.4
	C43.8,88,44.1,88,44.1,88.9L44.1,88.9L44.1,88.9z M73.3,88c0.9,0,0.9,0.3,1.1,1.2c0.3,5.8,0.9,11.6,1.4,17.4c0,0.6,0,1.4,0.3,2
	c0.6,1.2,0.3,2.3-0.3,3.5c-1.1,2.3-2.3,4.9-3.4,7.2c-0.3,0.9-0.6,0.9-1.1,0c-2-3.2-3.1-6.4-4-10.1c-0.8-3.5-0.8-7.3-1.1-10.7
	c-0.3-3.2-0.6-6.1-0.9-9.3c0-0.9,0-1.2,1.1-1.2c1.1,0.3,2.3,0,3.4,0L73.3,88L73.3,88C73.3,88,73.3,88,73.3,88z M95.5,76.4
	c0.9,0,0.9,0.3,0.6,0.9L91,87.7c-0.3,0.3-0.3,0.6-0.6,1.1c-0.3,0.6,0,0.9,0.6,1.2c0.6,0.3,0.6-0.3,0.9-0.6c0.3-0.6,0.6-0.9,1.4-0.9
	h6.8c0.9,0,0.9,0.3,0.6,0.9c-2.3,4.3-4.3,9-6.6,13.3c-0.9,1.7-0.6,2.3,1.4,2.3c0.6-0.3,1.7-0.3,2.9-0.3c-1.1,2-2,4.1-2.9,6.1
	c-0.6,1.4-1.4,1.7-2.6,1.7h-6.6c-0.6,0-1.1,0-1.7-0.3c-2-0.6-2.6-2-2-4c1.1-3.2,2.9-6.1,4.3-9.3c0.3-0.6,0.6-0.9,0.9-1.7h-5.7
	c-2.3-0.6-3.1-2-2.3-4.3c0.9-2.6,2.3-5.2,3.4-7.5c1.4-2.6,2.6-5.5,4-8.1c0.3-0.6,0.6-0.9,1.4-0.9L95.5,76.4L95.5,76.4z M144.1,88
	c-0.6,0-0.9,0.3-0.9,0.9v6.1c0,0.6,0.3,0.9,0.9,0.9h3.1c0.6,0,0.9-0.3,0.9-0.9v-4.8C148.1,88,147.7,88,144.1,88z M163.5,79
	c2,0.3,3.7,2.3,3.7,4.6c0,2.3-1.7,4.1-4,4.3h-2.3c-2.9,0-2.9,0-2.9-2.9c0-0.9,0-2,0.3-2.9C158.9,79.9,161,78.7,163.5,79
	C163.5,79,163.5,79,163.5,79z"/>
</svg>
